<?xml version="1.0" encoding="UTF-8" standalone="no"?>
<!-- Created with Inkscape (http://www.inkscape.org/) -->

<svg
   width="210mm"
   height="297mm"
   viewBox="0 0 210 297"
   version="1.1"
   id="svg5"
   inkscape:version="1.1.2 (0a00cf5339, 2022-02-04)"
   sodipodi:docname="tiles.svg"
   xmlns:inkscape="http://www.inkscape.org/namespaces/inkscape"
   xmlns:sodipodi="http://sodipodi.sourceforge.net/DTD/sodipodi-0.dtd"
   xmlns="http://www.w3.org/2000/svg"
   xmlns:svg="http://www.w3.org/2000/svg">
  <sodipodi:namedview
     id="namedview7"
     pagecolor="#ffffff"
     bordercolor="#666666"
     borderopacity="1.0"
     inkscape:pageshadow="2"
     inkscape:pageopacity="0.0"
     inkscape:pagecheckerboard="0"
     inkscape:document-units="mm"
     showgrid="false"
     inkscape:zoom="0.90583672"
     inkscape:cx="233.48579"
     inkscape:cy="263.84446"
     inkscape:window-width="1916"
     inkscape:window-height="1041"
     inkscape:window-x="0"
     inkscape:window-y="18"
     inkscape:window-maximized="1"
     inkscape:current-layer="layer1" />
  <defs
     id="defs2">
    <inkscape:path-effect
       effect="fillet_chamfer"
       id="path-effect6119"
       is_visible="true"
       lpeversion="1"
       satellites_param="F,0,0,1,0,2.1166667,0,1 @ F,0,0,1,0,2.1166667,0,1 @ F,0,0,1,0,2.1166667,0,1 @ F,0,0,1,0,2.1166667,0,1"
       unit="px"
       method="auto"
       mode="F"
       radius="8"
       chamfer_steps="1"
       flexible="false"
       use_knot_distance="true"
       apply_no_radius="true"
       apply_with_radius="true"
       only_selected="false"
       hide_knots="false" />
    <inkscape:path-effect
       effect="fillet_chamfer"
       id="path-effect6037"
       is_visible="true"
       lpeversion="1"
       satellites_param="F,0,0,1,0,2.1166667,0,29 @ F,0,0,1,0,2.1166667,0,29 @ F,0,0,1,0,2.1166667,0,29 @ F,0,0,1,0,2.1166667,0,29"
       unit="px"
       method="auto"
       mode="F"
       radius="8"
       chamfer_steps="30"
       flexible="false"
       use_knot_distance="true"
       apply_no_radius="true"
       apply_with_radius="true"
       only_selected="false"
       hide_knots="false" />
    <inkscape:path-effect
       effect="fillet_chamfer"
       id="path-effect6119-6"
       is_visible="true"
       lpeversion="1"
       satellites_param="F,0,0,1,0,2.1166667,0,1 @ F,0,0,1,0,2.1166667,0,1 @ F,0,0,1,0,2.1166667,0,1 @ F,0,0,1,0,2.1166667,0,1"
       unit="px"
       method="auto"
       mode="F"
       radius="8"
       chamfer_steps="1"
       flexible="false"
       use_knot_distance="true"
       apply_no_radius="true"
       apply_with_radius="true"
       only_selected="false"
       hide_knots="false" />
    <inkscape:path-effect
       effect="fillet_chamfer"
       id="path-effect6119-5"
       is_visible="true"
       lpeversion="1"
       satellites_param="F,0,0,1,0,2.1166667,0,1 @ F,0,0,1,0,2.1166667,0,1 @ F,0,0,1,0,2.1166667,0,1 @ F,0,0,1,0,2.1166667,0,1"
       unit="px"
       method="auto"
       mode="F"
       radius="8"
       chamfer_steps="1"
       flexible="false"
       use_knot_distance="true"
       apply_no_radius="true"
       apply_with_radius="true"
       only_selected="false"
       hide_knots="false" />
    <inkscape:path-effect
       effect="fillet_chamfer"
       id="path-effect6119-56"
       is_visible="true"
       lpeversion="1"
       satellites_param="F,0,0,1,0,2.1166667,0,1 @ F,0,0,1,0,2.1166667,0,1 @ F,0,0,1,0,2.1166667,0,1 @ F,0,0,1,0,2.1166667,0,1"
       unit="px"
       method="auto"
       mode="F"
       radius="8"
       chamfer_steps="1"
       flexible="false"
       use_knot_distance="true"
       apply_no_radius="true"
       apply_with_radius="true"
       only_selected="false"
       hide_knots="false" />
    <inkscape:path-effect
       effect="fillet_chamfer"
       id="path-effect6119-6-2"
       is_visible="true"
       lpeversion="1"
       satellites_param="F,0,0,1,0,2.1166667,0,1 @ F,0,0,1,0,2.1166667,0,1 @ F,0,0,1,0,2.1166667,0,1 @ F,0,0,1,0,2.1166667,0,1"
       unit="px"
       method="auto"
       mode="F"
       radius="8"
       chamfer_steps="1"
       flexible="false"
       use_knot_distance="true"
       apply_no_radius="true"
       apply_with_radius="true"
       only_selected="false"
       hide_knots="false" />
    <inkscape:path-effect
       effect="fillet_chamfer"
       id="path-effect6119-2"
       is_visible="true"
       lpeversion="1"
       satellites_param="F,0,0,1,0,2.1166667,0,1 @ F,0,0,1,0,2.1166667,0,1 @ F,0,0,1,0,2.1166667,0,1 @ F,0,0,1,0,2.1166667,0,1"
       unit="px"
       method="auto"
       mode="F"
       radius="8"
       chamfer_steps="1"
       flexible="false"
       use_knot_distance="true"
       apply_no_radius="true"
       apply_with_radius="true"
       only_selected="false"
       hide_knots="false" />
    <inkscape:path-effect
       effect="fillet_chamfer"
       id="path-effect6119-6-7"
       is_visible="true"
       lpeversion="1"
       satellites_param="F,0,0,1,0,2.1166667,0,1 @ F,0,0,1,0,2.1166667,0,1 @ F,0,0,1,0,2.1166667,0,1 @ F,0,0,1,0,2.1166667,0,1"
       unit="px"
       method="auto"
       mode="F"
       radius="8"
       chamfer_steps="1"
       flexible="false"
       use_knot_distance="true"
       apply_no_radius="true"
       apply_with_radius="true"
       only_selected="false"
       hide_knots="false" />
    <inkscape:path-effect
       effect="fillet_chamfer"
       id="path-effect6119-56-0"
       is_visible="true"
       lpeversion="1"
       satellites_param="F,0,0,1,0,2.1166667,0,1 @ F,0,0,1,0,2.1166667,0,1 @ F,0,0,1,0,2.1166667,0,1 @ F,0,0,1,0,2.1166667,0,1"
       unit="px"
       method="auto"
       mode="F"
       radius="8"
       chamfer_steps="1"
       flexible="false"
       use_knot_distance="true"
       apply_no_radius="true"
       apply_with_radius="true"
       only_selected="false"
       hide_knots="false" />
    <inkscape:path-effect
       effect="fillet_chamfer"
       id="path-effect6119-6-2-9"
       is_visible="true"
       lpeversion="1"
       satellites_param="F,0,0,1,0,2.1166667,0,1 @ F,0,0,1,0,2.1166667,0,1 @ F,0,0,1,0,2.1166667,0,1 @ F,0,0,1,0,2.1166667,0,1"
       unit="px"
       method="auto"
       mode="F"
       radius="8"
       chamfer_steps="1"
       flexible="false"
       use_knot_distance="true"
       apply_no_radius="true"
       apply_with_radius="true"
       only_selected="false"
       hide_knots="false" />
    <inkscape:path-effect
       effect="fillet_chamfer"
       id="path-effect6119-2-6"
       is_visible="true"
       lpeversion="1"
       satellites_param="F,0,0,1,0,2.1166667,0,1 @ F,0,0,1,0,2.1166667,0,1 @ F,0,0,1,0,2.1166667,0,1 @ F,0,0,1,0,2.1166667,0,1"
       unit="px"
       method="auto"
       mode="F"
       radius="8"
       chamfer_steps="1"
       flexible="false"
       use_knot_distance="true"
       apply_no_radius="true"
       apply_with_radius="true"
       only_selected="false"
       hide_knots="false" />
    <inkscape:path-effect
       effect="fillet_chamfer"
       id="path-effect6119-6-7-1"
       is_visible="true"
       lpeversion="1"
       satellites_param="F,0,0,1,0,2.1166667,0,1 @ F,0,0,1,0,2.1166667,0,1 @ F,0,0,1,0,2.1166667,0,1 @ F,0,0,1,0,2.1166667,0,1"
       unit="px"
       method="auto"
       mode="F"
       radius="8"
       chamfer_steps="1"
       flexible="false"
       use_knot_distance="true"
       apply_no_radius="true"
       apply_with_radius="true"
       only_selected="false"
       hide_knots="false" />
    <inkscape:path-effect
       effect="fillet_chamfer"
       id="path-effect6119-56-0-8"
       is_visible="true"
       lpeversion="1"
       satellites_param="F,0,0,1,0,2.1166667,0,1 @ F,0,0,1,0,2.1166667,0,1 @ F,0,0,1,0,2.1166667,0,1 @ F,0,0,1,0,2.1166667,0,1"
       unit="px"
       method="auto"
       mode="F"
       radius="8"
       chamfer_steps="1"
       flexible="false"
       use_knot_distance="true"
       apply_no_radius="true"
       apply_with_radius="true"
       only_selected="false"
       hide_knots="false" />
    <inkscape:path-effect
       effect="fillet_chamfer"
       id="path-effect6119-6-2-9-7"
       is_visible="true"
       lpeversion="1"
       satellites_param="F,0,0,1,0,2.1166667,0,1 @ F,0,0,1,0,2.1166667,0,1 @ F,0,0,1,0,2.1166667,0,1 @ F,0,0,1,0,2.1166667,0,1"
       unit="px"
       method="auto"
       mode="F"
       radius="8"
       chamfer_steps="1"
       flexible="false"
       use_knot_distance="true"
       apply_no_radius="true"
       apply_with_radius="true"
       only_selected="false"
       hide_knots="false" />
    <inkscape:path-effect
       effect="fillet_chamfer"
       id="path-effect6119-9"
       is_visible="true"
       lpeversion="1"
       satellites_param="F,0,0,1,0,2.1166667,0,1 @ F,0,0,1,0,2.1166667,0,1 @ F,0,0,1,0,2.1166667,0,1 @ F,0,0,1,0,2.1166667,0,1"
       unit="px"
       method="auto"
       mode="F"
       radius="8"
       chamfer_steps="1"
       flexible="false"
       use_knot_distance="true"
       apply_no_radius="true"
       apply_with_radius="true"
       only_selected="false"
       hide_knots="false" />
    <inkscape:path-effect
       effect="fillet_chamfer"
       id="path-effect6119-6-20"
       is_visible="true"
       lpeversion="1"
       satellites_param="F,0,0,1,0,2.1166667,0,1 @ F,0,0,1,0,2.1166667,0,1 @ F,0,0,1,0,2.1166667,0,1 @ F,0,0,1,0,2.1166667,0,1"
       unit="px"
       method="auto"
       mode="F"
       radius="8"
       chamfer_steps="1"
       flexible="false"
       use_knot_distance="true"
       apply_no_radius="true"
       apply_with_radius="true"
       only_selected="false"
       hide_knots="false" />
    <inkscape:path-effect
       effect="fillet_chamfer"
       id="path-effect6119-56-2"
       is_visible="true"
       lpeversion="1"
       satellites_param="F,0,0,1,0,2.1166667,0,1 @ F,0,0,1,0,2.1166667,0,1 @ F,0,0,1,0,2.1166667,0,1 @ F,0,0,1,0,2.1166667,0,1"
       unit="px"
       method="auto"
       mode="F"
       radius="8"
       chamfer_steps="1"
       flexible="false"
       use_knot_distance="true"
       apply_no_radius="true"
       apply_with_radius="true"
       only_selected="false"
       hide_knots="false" />
    <inkscape:path-effect
       effect="fillet_chamfer"
       id="path-effect6119-6-2-3"
       is_visible="true"
       lpeversion="1"
       satellites_param="F,0,0,1,0,2.1166667,0,1 @ F,0,0,1,0,2.1166667,0,1 @ F,0,0,1,0,2.1166667,0,1 @ F,0,0,1,0,2.1166667,0,1"
       unit="px"
       method="auto"
       mode="F"
       radius="8"
       chamfer_steps="1"
       flexible="false"
       use_knot_distance="true"
       apply_no_radius="true"
       apply_with_radius="true"
       only_selected="false"
       hide_knots="false" />
  </defs>
  <g
     inkscape:label="Layer 1"
     inkscape:groupmode="layer"
     id="layer1">
    <path
       id="rect846"
       style="fill:#b9b9b9;stroke-width:3.43798;stroke-linecap:round;stroke-linejoin:round"
       d="M 8 0 A 7.9999986 7.9999986 0 0 0 0 8 L 0 544 A 7.9999986 7.9999986 0 0 0 8 552 L 544 552 A 7.9999986 7.9999986 0 0 0 552 544 L 552 8 A 7.9999986 7.9999986 0 0 0 544 0 L 8 0 z M 16 8 L 128 8 A 7.9999986 7.9999986 0 0 1 136 16 L 136 128 A 7.9999986 7.9999986 0 0 1 128 136 L 16 136 A 7.9999986 7.9999986 0 0 1 8 128 L 8 16 A 7.9999986 7.9999986 0 0 1 16 8 z M 152 8 L 264 8 A 7.9999987 7.9999987 0 0 1 272 16 L 272 128 A 7.9999987 7.9999987 0 0 1 264 136 L 152 136 A 7.9999987 7.9999987 0 0 1 144 128 L 144 16 A 7.9999987 7.9999987 0 0 1 152 8 z M 288 8 L 400 8 A 7.9999988 7.9999988 0 0 1 408 16 L 408 128 A 7.9999988 7.9999988 0 0 1 400 136 L 288 136 A 7.9999988 7.9999988 0 0 1 280 128 L 280 16 A 7.9999988 7.9999988 0 0 1 288 8 z M 424 8 L 536 8 A 7.9999989 7.9999989 0 0 1 544 16 L 544 128 A 7.9999989 7.9999989 0 0 1 536 136 L 424 136 A 7.9999989 7.9999989 0 0 1 416 128 L 416 16 A 7.9999989 7.9999989 0 0 1 424 8 z M 16 144 L 128 144 A 7.9999997 7.9999997 0 0 1 136 152 L 136 264 A 7.9999997 7.9999997 0 0 1 128 272 L 16 272 A 7.9999997 7.9999997 0 0 1 8 264 L 8 152 A 7.9999997 7.9999997 0 0 1 16 144 z M 152 144 L 264 144 A 7.9999998 7.9999998 0 0 1 272 152 L 272 264 A 7.9999998 7.9999998 0 0 1 264 272 L 152 272 A 7.9999998 7.9999998 0 0 1 144 264 L 144 152 A 7.9999998 7.9999998 0 0 1 152 144 z M 288 144 L 400 144 A 7.9999999 7.9999999 0 0 1 408 152 L 408 264 A 7.9999999 7.9999999 0 0 1 400 272 L 288 272 A 7.9999999 7.9999999 0 0 1 280 264 L 280 152 A 7.9999999 7.9999999 0 0 1 288 144 z M 424 144 L 536 144 A 7.999999 7.999999 0 0 1 544 152 L 544 264 A 7.999999 7.999999 0 0 1 536 272 L 424 272 A 7.999999 7.999999 0 0 1 416 264 L 416 152 A 7.999999 7.999999 0 0 1 424 144 z M 16 280 L 128 280 A 7.9999996 7.9999996 0 0 1 136 288 L 136 400 A 7.9999996 7.9999996 0 0 1 128 408 L 16 408 A 7.9999996 7.9999996 0 0 1 8 400 L 8 288 A 7.9999996 7.9999996 0 0 1 16 280 z M 152 280 L 264 280 A 8.0000001 8.0000001 0 0 1 272 288 L 272 400 A 8.0000001 8.0000001 0 0 1 264 408 L 152 408 A 8.0000001 8.0000001 0 0 1 144 400 L 144 288 A 8.0000001 8.0000001 0 0 1 152 280 z M 288 280 L 400 280 A 8 8 0 0 1 408 288 L 408 400 A 8 8 0 0 1 400 408 L 288 408 A 8 8 0 0 1 280 400 L 280 288 A 8 8 0 0 1 288 280 z M 424 280 L 536 280 A 7.9999991 7.9999991 0 0 1 544 288 L 544 400 A 7.9999991 7.9999991 0 0 1 536 408 L 424 408 A 7.9999991 7.9999991 0 0 1 416 400 L 416 288 A 7.9999991 7.9999991 0 0 1 424 280 z M 16 416 L 128 416 A 7.9999995 7.9999995 0 0 1 136 424 L 136 536 A 7.9999995 7.9999995 0 0 1 128 544 L 16 544 A 7.9999995 7.9999995 0 0 1 8 536 L 8 424 A 7.9999995 7.9999995 0 0 1 16 416 z M 152 416 L 264 416 A 7.9999994 7.9999994 0 0 1 272 424 L 272 536 A 7.9999994 7.9999994 0 0 1 264 544 L 152 544 A 7.9999994 7.9999994 0 0 1 144 536 L 144 424 A 7.9999994 7.9999994 0 0 1 152 416 z M 288 416 L 400 416 A 7.9999993 7.9999993 0 0 1 408 424 L 408 536 A 7.9999993 7.9999993 0 0 1 400 544 L 288 544 A 7.9999993 7.9999993 0 0 1 280 536 L 280 424 A 7.9999993 7.9999993 0 0 1 288 416 z M 424 416 L 536 416 A 7.9999992 7.9999992 0 0 1 544 424 L 544 536 A 7.9999992 7.9999992 0 0 1 536 544 L 424 544 A 7.9999992 7.9999992 0 0 1 416 536 L 416 424 A 7.9999992 7.9999992 0 0 1 424 416 z "
       transform="scale(0.26458333)"
       inkscape:export-filename="/home/vil/godot/myprojects/2048/images/tiles_back.png"
       inkscape:export-xdpi="96"
       inkscape:export-ydpi="96" />
    <path
       style="fill:#ffffff;stroke-width:1.28226;stroke-linecap:round;stroke-linejoin:round"
       id="rect950-3"
       width="33.866665"
       height="33.866665"
       x="153.22508"
       y="7.9741101"
       inkscape:path-effect="#path-effect6119-5"
       sodipodi:type="rect"
       d="m 155.34175,7.9741101 h 29.63333 a 2.1166667,2.1166667 45 0 1 2.11667,2.1166669 v 29.633331 a 2.1166667,2.1166667 135 0 1 -2.11667,2.116667 h -29.63333 a 2.1166667,2.1166667 45 0 1 -2.11667,-2.116667 V 10.090777 a 2.1166667,2.1166667 135 0 1 2.11667,-2.1166669 z"
       inkscape:export-filename="/home/vil/godot/myprojects/2048/images/tile.png"
       inkscape:export-xdpi="96"
       inkscape:export-ydpi="96" />
  </g>
</svg>
